<svg fill="#FFFFFF" xmlns="http://www.w3.org/2000/svg" data-name="Layer 1" viewBox="0 0 100 100" x="0px" y="0px"><title>all</title><g><path d="M11.51,0H66.4a18.51,18.51,0,0,1,2,1.52q12,12,24,23.94a4.43,4.43,0,0,1,1.39,3.38q0,32.17,0,64.34c0,4.23-2.57,6.83-6.79,6.83H13c-4.23,0-6.78-2.57-6.79-6.82q0-26.22,0-52.43,0-17.09,0-34.17A6.2,6.2,0,0,1,11.17.17,1.87,1.87,0,0,0,11.51,0Zm51,6.27-0.71,0h-46a3.86,3.86,0,0,0-1.06.13c-1.54.44-2.27,1.61-2.27,3.54q0,30.27,0,60.54,0,10,0,19.92a3.14,3.14,0,0,0,3.41,3.4h68c2.46,0,3.67-1.19,3.67-3.64q0-28.9,0-57.81V31.24H66.1q-3.59,0-3.6-3.61,0-6.25,0-12.5C62.51,12.21,62.51,9.29,62.51,6.27ZM68.79,25h14l-14-14V25Z"></path><path d="M50.09,62.52q10.84,0,21.68,0a3.1,3.1,0,0,1,.67,6.15,6,6,0,0,1-1.17.06H28.6a5.49,5.49,0,0,1-1.07-.07,3.1,3.1,0,0,1,.68-6.15c5.11,0,10.22,0,15.33,0h6.54Z"></path><path d="M49.9,81.25H28.51c-2.07,0-3.5-1.27-3.5-3.11S26.41,75,28.5,75h43C73.56,75,75,76.29,75,78.13s-1.41,3.11-3.5,3.11H49.9Z"></path><path d="M50,50H71.17a6.9,6.9,0,0,1,1.26.06,3.1,3.1,0,0,1-.56,6.15c-3.52,0-7,0-10.55,0H28.42c-2.47,0-4-2.09-3.2-4.24a3.17,3.17,0,0,1,3.18-2H50Z"></path><path d="M37.49,37.52h9c2.09,0,3.51,1.27,3.5,3.11s-1.41,3.11-3.5,3.11H28.41a3.12,3.12,0,1,1,0-6.22C31.44,37.51,34.46,37.52,37.49,37.52Z"></path></g></svg>