<svg fill="#FFFFFF" xmlns="http://www.w3.org/2000/svg" xmlns:xlink="http://www.w3.org/1999/xlink" version="1.1" x="0px" y="0px" viewBox="0 0 100 100" enable-background="new 0 0 100 100" xml:space="preserve"><g><rect x="8" y="91" fill="#FFFFFF" width="84" height="4"></rect><path fill="#FFFFFF" d="M91,53H78.408C77.21,39,65.906,27.79,51.914,26.813C52.032,26.545,52,26.032,52,25.721v-6.277   c6-2.044,11,5.204,16,0.976c0-4.099,0-8.197,0-12.296c-5,4.229-10.6-3.023-15.995-0.975C51.988,5.96,51.197,5,50.004,5   C48.801,5,48,5.976,48,7.179v18.542c0,0.31-0.013,0.822,0.104,1.089C34.095,27.769,22.791,39,21.592,53H9v35h82V53z M27,79.751   c0,1.846-1.655,3.342-3.5,3.342c-1.846,0-3.5-1.497-3.5-3.342V63.526c0-1.846,1.655-3.342,3.5-3.342c1.845,0,3.5,1.497,3.5,3.342   V79.751z M45,79.751c0,1.846-1.655,3.342-3.5,3.342c-1.846,0-3.5-1.497-3.5-3.342V63.526c0-1.846,1.655-3.342,3.5-3.342   c1.845,0,3.5,1.497,3.5,3.342V79.751z M62,79.751c0,1.846-1.655,3.342-3.5,3.342c-1.845,0-3.5-1.497-3.5-3.342V63.526   c0-1.846,1.655-3.342,3.5-3.342c1.846,0,3.5,1.497,3.5,3.342V79.751z M80,79.751c0,1.846-1.655,3.342-3.5,3.342   c-1.845,0-3.5-1.497-3.5-3.342V63.526c0-1.846,1.655-3.342,3.5-3.342c1.846,0,3.5,1.497,3.5,3.342V79.751z"></path></g></svg>