<svg fill="#FFFFFF" xmlns="http://www.w3.org/2000/svg" xmlns:xlink="http://www.w3.org/1999/xlink" version="1.1" x="0px" y="0px" viewBox="0 0 95 95" enable-background="new 0 0 95 95" xml:space="preserve"><g><path d="M36.74,45.162c0-3.103,2.293-4.553,5.094-3.22l14.879,7.071c2.803,1.331,2.803,3.51,0,4.842l-14.879,7.071   c-2.801,1.331-5.094-0.117-5.094-3.221V45.162z"></path><path d="M79.477,11.377H15.521c-4.408,0-7.994,3.588-7.994,7.994v56.257c0,4.409,3.586,7.995,7.994,7.995h63.955   c4.408,0,7.996-3.586,7.996-7.995V19.371C87.473,14.965,83.885,11.377,79.477,11.377z M65.154,15.226   c2.268,0,4.107,1.839,4.107,4.107s-1.84,4.109-4.107,4.109c-2.271,0-4.107-1.841-4.107-4.109S62.883,15.226,65.154,15.226z    M54.051,15.226c2.268,0,4.107,1.839,4.107,4.107s-1.84,4.109-4.107,4.109c-2.27,0-4.107-1.841-4.107-4.109   S51.781,15.226,54.051,15.226z M80.365,75.628c0,0.492-0.398,0.89-0.889,0.89H15.521c-0.488,0-0.887-0.397-0.887-0.89V26.995h65.73   V75.628z M76.256,23.442c-2.27,0-4.105-1.841-4.105-4.109s1.836-4.107,4.105-4.107s4.109,1.839,4.109,4.107   S78.525,23.442,76.256,23.442z"></path></g></svg>