<svg fill="#FFFFFF" xmlns="http://www.w3.org/2000/svg" data-name="Layer 1" viewBox="0 0 100 100" x="0px" y="0px"><title>all</title><g data-name="Go to Web - Orange"><polygon points="57.99 44.51 57.99 94.81 70.94 81.87 80.34 100 87.17 96.46 78.12 79.02 95.59 79.02 57.99 44.51"></polygon><path d="M96.69,53.76c0.09-.66.2-1.32,0.27-2,0.15-1.51.24-3,.24-4.58s-0.08-3-.22-4.46c-0.07-.78-0.2-1.54-0.31-2.3-0.08-.54-0.13-1.09-0.22-1.62h0a47.19,47.19,0,0,0-38-38l0,0C57.77,0.65,57.14.59,56.52,0.5s-1.35-.21-2-0.28C53,0.08,51.51,0,50,0s-3,.08-4.48.22c-0.69.07-1.36,0.18-2,.28s-1.26.14-1.87,0.25l0,0a47.19,47.19,0,0,0-38,38l0,0c-0.1.57-.15,1.16-0.24,1.74S3.09,42,3,42.73c-0.14,1.47-.22,3-0.22,4.47s0.08,3,.22,4.46c0.07,0.77.2,1.51,0.31,2.27,0.08,0.55.13,1.11,0.23,1.66l0,0a47.19,47.19,0,0,0,38,38l0,0c0.58,0.1,1.17.16,1.75,0.24s1.44,0.22,2.18.29c1.47,0.14,3,.22,4.46.22h0.14v-11H50a36.12,36.12,0,0,1-6.18-.57A96.25,96.25,0,0,1,40,64.14c3.25,0.2,6.6.32,10,.32h0.14V58.17H50c-3.77,0-7.31-.13-10.62-0.35C39.15,54.51,39,51,39,47.2s0.13-7.31.35-10.63c3.32-.22,6.86-0.35,10.63-0.35s7.3,0.13,10.61.35c0,0.19,0,.37,0,0.57a7.72,7.72,0,0,1,2.65,1.59l3.87,3.55c-0.05-1.74-.15-3.43-0.26-5.12A96.67,96.67,0,0,1,85.64,41a36.46,36.46,0,0,1,.56,6.18,35.94,35.94,0,0,1-.54,6.17c-1.49.49-3.07,1-4.86,1.42l3.7,3.39h0l8.72,8A47,47,0,0,0,96.4,55.61l0,0C96.55,55,96.61,54.36,96.69,53.76Zm-60-40.18a114.47,114.47,0,0,0-3.06,17.22,114.3,114.3,0,0,0-17.21,3.05A36.37,36.37,0,0,1,36.65,13.58Zm0,67.25A36.36,36.36,0,0,1,16.38,60.55a114.26,114.26,0,0,0,17.21,3.06A114.65,114.65,0,0,0,36.64,80.82ZM33.06,57.24a96.5,96.5,0,0,1-18.7-3.85,34,34,0,0,1,0-12.37,96.5,96.5,0,0,1,18.7-3.85c-0.2,3.25-.32,6.6-0.32,10S32.86,54,33.06,57.24ZM50,29.94c-3.43,0-6.78.11-10,.31a96.43,96.43,0,0,1,3.85-18.7,33.91,33.91,0,0,1,12.36,0A96.54,96.54,0,0,1,60,30.26C56.78,30.05,53.43,29.94,50,29.94Zm16.39,0.85a114.66,114.66,0,0,0-3.05-17.22A36.36,36.36,0,0,1,83.62,33.85,114.22,114.22,0,0,0,66.39,30.79Z"></path></g></svg>