<svg fill="#f1184c" height="100" viewBox="0 0 450 450" width="100" xmlns="http://www.w3.org/2000/svg"><circle cx="225" cy="133.5" r="31.25"/><path d="m251 219.12v103a26 26 0 0 1 -52 0v-103a26 26 0 0 1 52 0z"/><path d="m225 0c-124.26 0-225 100.74-225 225s100.74 225 225 225 225-100.74 225-225-100.74-225-225-225zm130.81 355.81a185 185 0 1 1 -261.62-261.62 185 185 0 1 1 261.62 261.62z"/><path d="m225 0c-124.26 0-225 100.74-225 225s100.74 225 225 225 225-100.74 225-225-100.74-225-225-225zm130.81 355.81a185 185 0 1 1 -261.62-261.62 185 185 0 1 1 261.62 261.62z"/></svg>